<?xml version="1.0" encoding="UTF-8"?>
<!DOCTYPE svg PUBLIC "-//W3C//DTD SVG 1.1//EN" "http://www.w3.org/Graphics/SVG/1.1/DTD/svg11.dtd">
<svg xmlns="http://www.w3.org/2000/svg" version="1.1" width="32px" height="32px" style="shape-rendering:geometricPrecision; text-rendering:geometricPrecision; image-rendering:optimizeQuality; fill-rule:evenodd; clip-rule:evenodd" xmlns:xlink="http://www.w3.org/1999/xlink">
<g><path style="opacity:1" fill="#fa5d6d" d="M 9.5,0.5 C 9.5,0.166667 9.5,-0.166667 9.5,-0.5C 13.5,-0.5 17.5,-0.5 21.5,-0.5C 25.8585,1.85846 29.1918,5.19179 31.5,9.5C 31.5,10.1667 31.5,10.8333 31.5,11.5C 27.1891,7.88434 22.5224,4.71767 17.5,2C 14.8323,1.43296 12.1656,0.932959 9.5,0.5 Z"/></g>
<g><path style="opacity:1" fill="#de46a5" d="M 5.5,2.5 C 15.8251,3.25883 24.4918,7.25883 31.5,14.5C 31.5,16.1667 31.5,17.8333 31.5,19.5C 30.0337,18.653 29.2004,17.3197 29,15.5C 27.6003,14.252 26.1003,13.252 24.5,12.5C 25.5042,10.3227 24.8375,9.98932 22.5,11.5C 17.1249,6.84501 10.7916,4.51168 3.5,4.5C 3.83333,3.5 4.5,2.83333 5.5,2.5 Z"/></g>
<g><path style="opacity:1" fill="#f14b8a" d="M 9.5,0.5 C 12.1656,0.932959 14.8323,1.43296 17.5,2C 22.5224,4.71767 27.1891,7.88434 31.5,11.5C 31.5,12.5 31.5,13.5 31.5,14.5C 24.4918,7.25883 15.8251,3.25883 5.5,2.5C 6.51369,1.32627 7.84702,0.659599 9.5,0.5 Z"/></g>
<g><path style="opacity:1" fill="#b73fdd" d="M 0.5,7.5 C 8.05185,6.32606 14.7185,7.99273 20.5,12.5C 20.189,13.4778 19.5223,14.1445 18.5,14.5C 16.5128,12.6726 14.1795,11.6726 11.5,11.5C 8.31569,9.58635 4.64903,8.91969 0.5,9.5C 0.5,8.83333 0.5,8.16667 0.5,7.5 Z"/></g>
<g><path style="opacity:1" fill="#c83dc1" d="M 3.5,4.5 C 10.7916,4.51168 17.1249,6.84501 22.5,11.5C 21.8333,11.8333 21.1667,12.1667 20.5,12.5C 14.7185,7.99273 8.05185,6.32606 0.5,7.5C 1.16667,6.16667 2.16667,5.16667 3.5,4.5 Z"/></g>
<g><path style="opacity:1" fill="#923cf7" d="M -0.5,9.5 C -0.166667,9.5 0.166667,9.5 0.5,9.5C 4.64903,8.91969 8.31569,9.58635 11.5,11.5C 9.60024,13.6195 7.93357,15.9528 6.5,18.5C 4.19438,18.9926 1.86105,19.3259 -0.5,19.5C -0.5,16.1667 -0.5,12.8333 -0.5,9.5 Z"/></g>
<g><path style="opacity:1" fill="#f4eff9" d="M 24.5,12.5 C 23.1667,14.5 21.8333,16.5 20.5,18.5C 17.5775,19.7497 14.9109,19.0831 12.5,16.5C 11.4777,16.8555 10.811,17.5222 10.5,18.5C 9.19322,19.1534 7.85989,19.8201 6.5,20.5C 5.53705,20.0302 5.53705,19.3635 6.5,18.5C 7.93357,15.9528 9.60024,13.6195 11.5,11.5C 14.1795,11.6726 16.5128,12.6726 18.5,14.5C 19.5223,14.1445 20.189,13.4778 20.5,12.5C 21.1667,12.1667 21.8333,11.8333 22.5,11.5C 24.8375,9.98932 25.5042,10.3227 24.5,12.5 Z"/></g>
<g><path style="opacity:1" fill="#c83fc1" d="M 24.5,12.5 C 26.1003,13.252 27.6003,14.252 29,15.5C 29.2004,17.3197 30.0337,18.653 31.5,19.5C 31.5,19.8333 31.5,20.1667 31.5,20.5C 30.8571,22.0764 29.8571,23.4097 28.5,24.5C 27.0883,22.0199 25.4216,19.6866 23.5,17.5C 22.5832,18.1272 21.5832,18.4606 20.5,18.5C 21.8333,16.5 23.1667,14.5 24.5,12.5 Z"/></g>
<g><path style="opacity:1" fill="#5a5bfa" d="M 6.5,18.5 C 5.53705,19.3635 5.53705,20.0302 6.5,20.5C 7.85989,19.8201 9.19322,19.1534 10.5,18.5C 15.5199,20.8375 18.1865,24.8375 18.5,30.5C 17.5084,30.3284 16.8417,30.6618 16.5,31.5C 15.8333,31.5 15.1667,31.5 14.5,31.5C 14.5,30.8333 14.1667,30.5 13.5,30.5C 12.2716,27.9249 10.6049,25.5916 8.5,23.5C 5.73429,22.9063 3.06762,22.573 0.5,22.5C 0.67158,21.5084 0.338246,20.8417 -0.5,20.5C -0.5,20.1667 -0.5,19.8333 -0.5,19.5C 1.86105,19.3259 4.19438,18.9926 6.5,18.5 Z"/></g>
<g><path style="opacity:1" fill="#3275fa" d="M 0.5,22.5 C 3.06762,22.573 5.73429,22.9063 8.5,23.5C 10.6049,25.5916 12.2716,27.9249 13.5,30.5C 11.901,30.2322 10.5676,30.5655 9.5,31.5C 7.83333,31.5 6.16667,31.5 4.5,31.5C 4.66018,29.8008 4.49351,28.1341 4,26.5C 2.62439,25.2949 1.45773,23.9616 0.5,22.5 Z"/></g>
<g><path style="opacity:1" fill="#8347f8" d="M 20.5,18.5 C 21.5832,18.4606 22.5832,18.1272 23.5,17.5C 25.4216,19.6866 27.0883,22.0199 28.5,24.5C 26.1267,28.0231 22.7934,30.0231 18.5,30.5C 18.1865,24.8375 15.5199,20.8375 10.5,18.5C 10.811,17.5222 11.4777,16.8555 12.5,16.5C 14.9109,19.0831 17.5775,19.7497 20.5,18.5 Z"/></g>
</svg>
