<?xml version="1.0" encoding="UTF-8"?>
<!DOCTYPE svg PUBLIC "-//W3C//DTD SVG 1.1//EN" "http://www.w3.org/Graphics/SVG/1.1/DTD/svg11.dtd">
<svg xmlns="http://www.w3.org/2000/svg" version="1.1" width="256px" height="256px" style="shape-rendering:geometricPrecision; text-rendering:geometricPrecision; image-rendering:optimizeQuality; fill-rule:evenodd; clip-rule:evenodd" xmlns:xlink="http://www.w3.org/1999/xlink">
<g><path style="opacity:1" fill="#e396e1" d="M 45.5,-0.5 C 49.1667,-0.5 52.8333,-0.5 56.5,-0.5C 66.5,5.83333 76.5,12.1667 86.5,18.5C 70.5981,19.1807 54.5981,19.8474 38.5,20.5C 35.5005,11.4964 37.8338,4.49635 45.5,-0.5 Z"/></g>
<g><path style="opacity:1" fill="#db8fe1" d="M 86.5,18.5 C 94.171,22.3327 101.504,26.666 108.5,31.5C 86.1667,31.5 63.8333,31.5 41.5,31.5C 40.6268,27.8018 39.6268,24.1351 38.5,20.5C 54.5981,19.8474 70.5981,19.1807 86.5,18.5 Z"/></g>
<g><path style="opacity:1" fill="#d38fe7" d="M 41.5,31.5 C 63.8333,31.5 86.1667,31.5 108.5,31.5C 117.035,36.263 125.368,41.263 133.5,46.5C 103.76,46.1751 74.093,46.5084 44.5,47.5C 43.5005,42.1681 42.5005,36.8348 41.5,31.5 Z"/></g>
<g><path style="opacity:1" fill="#ce89e7" d="M 133.5,46.5 C 137.457,48.4726 141.124,50.8059 144.5,53.5C 111.833,53.5 79.1667,53.5 46.5,53.5C 45.8333,51.5 45.1667,49.5 44.5,47.5C 74.093,46.5084 103.76,46.1751 133.5,46.5 Z"/></g>
<g><path style="opacity:1" fill="#c889e7" d="M 46.5,53.5 C 79.1667,53.5 111.833,53.5 144.5,53.5C 151.506,57.0002 158.173,61.0002 164.5,65.5C 125.833,65.5 87.1667,65.5 48.5,65.5C 47.8333,61.5 47.1667,57.5 46.5,53.5 Z"/></g>
<g><path style="opacity:1" fill="#c189e7" d="M 48.5,65.5 C 87.1667,65.5 125.833,65.5 164.5,65.5C 168.836,67.332 172.836,69.6654 176.5,72.5C 134.5,73.8333 92.5,73.8333 50.5,72.5C 49.9853,70.1055 49.3186,67.7722 48.5,65.5 Z"/></g>
<g><path style="opacity:1" fill="#bb83e7" d="M 50.5,72.5 C 92.5,73.8333 134.5,73.8333 176.5,72.5C 184.171,76.3327 191.504,80.666 198.5,85.5C 150.336,86.4988 102.003,86.8322 53.5,86.5C 52.5008,81.8375 51.5008,77.1709 50.5,72.5 Z"/></g>
<g><path style="opacity:1" fill="#b383e7" d="M 198.5,85.5 C 207.035,90.263 215.368,95.263 223.5,100.5C 167.833,100.5 112.167,100.5 56.5,100.5C 55.4992,95.8291 54.4992,91.1625 53.5,86.5C 102.003,86.8322 150.336,86.4988 198.5,85.5 Z"/></g>
<g><path style="opacity:1" fill="#af7de7" d="M 56.5,100.5 C 112.167,100.5 167.833,100.5 223.5,100.5C 228.037,102.93 232.37,105.597 236.5,108.5C 177.167,108.5 117.833,108.5 58.5,108.5C 57.8333,105.833 57.1667,103.167 56.5,100.5 Z"/></g>
<g><path style="opacity:1" fill="#a87ded" d="M 58.5,108.5 C 117.833,108.5 177.167,108.5 236.5,108.5C 242.178,111.336 247.511,114.669 252.5,118.5C 213.833,118.5 175.167,118.5 136.5,118.5C 134.745,117.928 133.078,117.094 131.5,116C 107.502,115.5 83.5023,115.333 59.5,115.5C 59.3259,113.139 58.9926,110.806 58.5,108.5 Z"/></g>
<g><path style="opacity:1" fill="#a17ced" d="M 136.5,118.5 C 175.167,118.5 213.833,118.5 252.5,118.5C 253.5,119.833 254.5,121.167 255.5,122.5C 255.5,125.5 255.5,128.5 255.5,131.5C 216.833,131.5 178.167,131.5 139.5,131.5C 140.037,126.734 139.037,122.4 136.5,118.5 Z"/></g>
<g><path style="opacity:1" fill="#9776ed" d="M 139.5,131.5 C 178.167,131.5 216.833,131.5 255.5,131.5C 255.5,131.833 255.5,132.167 255.5,132.5C 254.31,134.355 252.977,136.188 251.5,138C 243.351,142.662 235.351,147.495 227.5,152.5C 171.002,151.501 114.336,151.168 57.5,151.5C 58.2952,147.524 58.9619,143.524 59.5,139.5C 83.5023,139.667 107.502,139.5 131.5,139C 135.021,137.31 137.688,134.81 139.5,131.5 Z"/></g>
<g><path style="opacity:1" fill="#8f75ed" d="M 57.5,151.5 C 114.336,151.168 171.002,151.501 227.5,152.5C 223.966,154.766 220.3,156.766 216.5,158.5C 162.997,158.832 109.664,158.499 56.5,157.5C 56.3253,155.379 56.6586,153.379 57.5,151.5 Z"/></g>
<g><path style="opacity:1" fill="#8a6fed" d="M 56.5,157.5 C 109.664,158.499 162.997,158.832 216.5,158.5C 208.434,163.89 200.1,168.89 191.5,173.5C 145.264,172.17 98.931,172.17 52.5,173.5C 53.469,167.961 54.8023,162.628 56.5,157.5 Z"/></g>
<g><path style="opacity:1" fill="#826fed" d="M 191.5,173.5 C 184.504,178.334 177.171,182.667 169.5,186.5C 129.67,185.501 89.6701,185.168 49.5,185.5C 50.4968,181.521 51.4968,177.521 52.5,173.5C 98.931,172.17 145.264,172.17 191.5,173.5 Z"/></g>
<g><path style="opacity:1" fill="#7669f2" d="M 49.5,185.5 C 89.6701,185.168 129.67,185.501 169.5,186.5C 155.673,195.917 141.34,204.584 126.5,212.5C 98.8333,212.5 71.1667,212.5 43.5,212.5C 45.7507,203.583 47.7507,194.583 49.5,185.5 Z"/></g>
<g><path style="opacity:1" fill="#6563f3" d="M 43.5,212.5 C 71.1667,212.5 98.8333,212.5 126.5,212.5C 109.035,223.404 91.3686,234.07 73.5,244.5C 61.5,244.5 49.5,244.5 37.5,244.5C 39.1137,233.765 41.1137,223.098 43.5,212.5 Z"/></g>
<g><path style="opacity:1" fill="#585cf3" d="M 37.5,244.5 C 49.5,244.5 61.5,244.5 73.5,244.5C 67.6631,247.918 61.9964,251.584 56.5,255.5C 52.8333,255.5 49.1667,255.5 45.5,255.5C 41.2962,252.961 38.6296,249.295 37.5,244.5 Z"/></g>
</svg>
